<?xml version="1.0" standalone="no"?>
<!DOCTYPE svg PUBLIC "-//W3C//DTD SVG 20010904//EN"
 "http://www.w3.org/TR/2001/REC-SVG-20010904/DTD/svg10.dtd">
<svg version="1.0" xmlns="http://www.w3.org/2000/svg"
 width="700.000000pt" height="700.000000pt" viewBox="0 0 700.000000 700.000000"
 preserveAspectRatio="xMidYMid meet">
<metadata>
Created by potrace 1.14, written by Peter Selinger 2001-2017
</metadata>
<g transform="translate(0.000000,700.000000) scale(0.100000,-0.100000)"
fill="#000000" stroke="none">
<path d="M0 3500 l0 -3500 3500 0 3500 0 0 3500 0 3500 -3500 0 -3500 0 0
-3500z m4307 1208 c-3 -13 -223 -623 -489 -1355 l-483 -1333 -312 0 -313 0 23
62 c13 35 235 645 492 1356 l468 1292 310 0 309 0 -5 -22z m-1779 -554 l-3
-265 -552 -257 c-304 -141 -551 -258 -549 -259 2 -2 250 -106 552 -231 l549
-227 3 -266 2 -266 -920 411 -920 411 0 147 0 146 913 461 c501 253 915 460
920 461 4 0 6 -120 5 -266z m2864 -196 l918 -463 -2 -158 -3 -159 -905 -389
c-498 -214 -915 -392 -928 -395 l-22 -6 2 261 3 262 555 229 c305 127 559 231
564 233 5 2 -246 120 -557 262 l-567 260 0 262 c0 193 3 263 12 263 6 0 425
-208 930 -462z"/>
</g>
</svg>
